<svg xmlns="http://www.w3.org/2000/svg" version="1.1" xmlns:xlink="http://www.w3.org/1999/xlink" xmlns:svgjs="http://svgjs.dev/svgjs" width="1500" height="1500" viewBox="0 0 1500 1500"><rect width="1500" height="1500" fill="#000000"></rect><g transform="matrix(0.6666666666666666,0,0,0.6666666666666666,249.39393939393938,571.6727569145975)"><svg viewBox="0 0 396 141" data-background-color="#a9cef4" preserveAspectRatio="xMidYMid meet" height="534" width="1500" xmlns="http://www.w3.org/2000/svg" xmlns:xlink="http://www.w3.org/1999/xlink"><g id="tight-bounds" transform="matrix(1,0,0,1,0.2400000000000091,0.12967326446002403)"><svg viewBox="0 0 395.52 140.74069140705376" height="140.74069140705376" width="395.52"><g><svg viewBox="0 0 674.8145340736075 240.12404959811988" height="140.74069140705376" width="395.52"><g transform="matrix(1,0,0,1,279.29453407360757,86.87738555111633)"><svg viewBox="0 0 395.52 66.3692784958872" height="66.3692784958872" width="395.52"><g id="textblocktransform"><svg viewBox="0 0 395.52 66.3692784958872" height="66.3692784958872" width="395.52" id="textblock"><g><svg viewBox="0 0 395.52 66.3692784958872" height="66.3692784958872" width="395.52"><g transform="matrix(1,0,0,1,0,0)"><svg width="395.52" viewBox="4.25 -35.35 212.74 35.7" height="66.3692784958872" data-palette-color="#000000"><path d="M8.25-17.8L16.6-17.8Q19.4-17.8 21.15-18.65 22.9-19.5 23.73-21.05 24.55-22.6 24.55-24.65L24.55-24.65Q24.55-27.9 22.68-29.7 20.8-31.5 16.6-31.5L16.6-31.5 8.25-31.5 8.25-17.8ZM28.5-24.65L28.5-24.65Q28.5-22.6 27.83-20.73 27.15-18.85 25.7-17.4 24.25-15.95 22-15.13 19.75-14.3 16.6-14.3L16.6-14.3 8.25-14.3 8.25 0 4.25 0 4.25-35 16.6-35Q20.7-35 23.33-33.6 25.95-32.2 27.23-29.85 28.5-27.5 28.5-24.65ZM51.55 0L48.1 0 47.8-4.5Q46.75-2.2 44.7-0.93 42.65 0.35 39.5 0.35L39.5 0.35Q36.8 0.35 34.9-0.5 33-1.35 31.97-2.93 30.95-4.5 30.95-6.65L30.95-6.65Q30.95-9.8 33.3-11.83 35.65-13.85 40.1-14.3L40.1-14.3 47.8-15.15 47.8-17.15Q47.8-19.25 46.25-20.53 44.7-21.8 42.05-21.8L42.05-21.8Q39.45-21.8 37.72-20.6 36-19.4 35.35-17.15L35.35-17.15 31.95-18.35Q32.95-21.65 35.62-23.5 38.3-25.35 42.15-25.35L42.15-25.35Q46.6-25.35 49.07-23.08 51.55-20.8 51.55-16.9L51.55-16.9 51.55 0ZM47.8-11.15L47.8-11.95 40.05-11.05Q37.55-10.75 36.25-9.68 34.95-8.6 34.95-6.85L34.95-6.85Q34.95-5.1 36.22-4.05 37.5-3 39.9-3L39.9-3Q42.65-3 44.4-4.1 46.15-5.2 46.97-7.08 47.8-8.95 47.8-11.15L47.8-11.15ZM69.5 0.35L69.5 0.35Q65.84 0.35 63.1-1.25 60.35-2.85 58.82-5.73 57.3-8.6 57.3-12.4L57.3-12.4Q57.3-16.25 58.82-19.18 60.35-22.1 63.1-23.73 65.84-25.35 69.5-25.35L69.5-25.35Q73.34-25.35 76.25-23.58 79.15-21.8 80.45-18.65L80.45-18.65 77-17.45Q76.25-19.45 74.27-20.63 72.3-21.8 69.7-21.8L69.7-21.8Q67.15-21.8 65.27-20.65 63.4-19.5 62.37-17.4 61.35-15.3 61.35-12.45L61.35-12.45Q61.35-8.25 63.6-5.73 65.84-3.2 69.59-3.2L69.59-3.2Q72.15-3.2 74.15-4.35 76.15-5.5 77.09-7.45L77.09-7.45 80.5-6.25Q79.15-3.15 76.25-1.4 73.34 0.35 69.5 0.35ZM84.94-17.5L84.94-17.5Q84.94-21.45 86.24-24.73 87.54-28 89.92-30.38 92.29-32.75 95.42-34.05 98.54-35.35 102.24-35.35L102.24-35.35Q107.64-35.35 111.72-32.85 115.79-30.35 117.89-25.75L117.89-25.75 114.64-24.55Q113.49-27 111.59-28.58 109.69-30.15 107.29-30.95 104.89-31.75 102.24-31.75L102.24-31.75Q98.49-31.75 95.49-30.05 92.49-28.35 90.77-25.15 89.04-21.95 89.04-17.5L89.04-17.5Q89.04-13.1 90.77-9.9 92.49-6.7 95.49-4.98 98.49-3.25 102.24-3.25L102.24-3.25Q104.94-3.25 107.39-4.1 109.84-4.95 111.82-6.75 113.79-8.55 114.99-11.25L114.99-11.25 118.24-10.05Q116.09-4.9 111.94-2.27 107.79 0.35 102.24 0.35L102.24 0.35Q98.54 0.35 95.42-0.95 92.29-2.25 89.92-4.65 87.54-7.05 86.24-10.33 84.94-13.6 84.94-17.5ZM124.89 0L124.89-25 128.34-25 128.59-21.4Q129.69-23.2 131.56-24.28 133.44-25.35 136.04-25.35L136.04-25.35Q138.69-25.35 140.87-24.08 143.04-22.8 144.24-20.3L144.24-20.3Q145.39-22.85 147.74-24.1 150.09-25.35 152.94-25.35L152.94-25.35Q155.74-25.35 157.89-24.13 160.04-22.9 161.24-20.48 162.44-18.05 162.44-14.4L162.44-14.4 162.44 0 158.69 0 158.69-13.95Q158.69-17.85 157.02-19.88 155.34-21.9 152.24-21.9L152.24-21.9Q149.09-21.9 147.24-19.73 145.39-17.55 145.39-13.3L145.39-13.3 145.39 0 141.64 0 141.64-13.95Q141.64-17.85 140.04-19.88 138.44-21.9 135.34-21.9L135.34-21.9Q132.19-21.9 130.42-19.73 128.64-17.55 128.64-13.3L128.64-13.3 128.64 0 124.89 0ZM188.79 0L185.34 0 185.04-4.5Q183.99-2.2 181.94-0.93 179.89 0.35 176.74 0.35L176.74 0.35Q174.04 0.35 172.14-0.5 170.24-1.35 169.21-2.93 168.19-4.5 168.19-6.65L168.19-6.65Q168.19-9.8 170.54-11.83 172.89-13.85 177.34-14.3L177.34-14.3 185.04-15.15 185.04-17.15Q185.04-19.25 183.49-20.53 181.94-21.8 179.29-21.8L179.29-21.8Q176.69-21.8 174.96-20.6 173.24-19.4 172.59-17.15L172.59-17.15 169.19-18.35Q170.19-21.65 172.86-23.5 175.54-25.35 179.39-25.35L179.39-25.35Q183.84-25.35 186.31-23.08 188.79-20.8 188.79-16.9L188.79-16.9 188.79 0ZM185.04-11.15L185.04-11.95 177.29-11.05Q174.79-10.75 173.49-9.68 172.19-8.6 172.19-6.85L172.19-6.85Q172.19-5.1 173.46-4.05 174.74-3 177.14-3L177.14-3Q179.89-3 181.64-4.1 183.39-5.2 184.21-7.08 185.04-8.95 185.04-11.15L185.04-11.15ZM196.09 0L196.09-25 199.54-25 199.74-21.45Q200.94-23.3 202.89-24.33 204.84-25.35 207.44-25.35L207.44-25.35Q210.29-25.35 212.44-24.13 214.59-22.9 215.79-20.48 216.99-18.05 216.99-14.4L216.99-14.4 216.99 0 213.24 0 213.24-13.95Q213.24-17.85 211.56-19.88 209.89-21.9 206.74-21.9L206.74-21.9Q203.49-21.9 201.66-19.75 199.84-17.6 199.84-13.4L199.84-13.4 199.84 0 196.09 0Z" opacity="1" transform="matrix(1,0,0,1,0,0)" fill="#ffffff" class="wordmark-text-0" data-fill-palette-color="primary" id="text-0"></path></svg></g></svg></g></svg></g></svg></g><g><svg viewBox="0 0 240.12404959811988 240.12404959811988" height="240.12404959811988" width="240.12404959811988"><g><svg viewBox="0 0 240.12404959811988 240.12404959811988" height="240.12404959811988" width="240.12404959811988"><g transform="matrix(1,0,0,1,70.83991442153149,63.46424353345813)"><svg viewBox="0 0 98.44422075505689 113.19556253120362" height="113.19556253120362" width="98.44422075505689"><g><svg xmlns="http://www.w3.org/2000/svg" xmlns:xlink="http://www.w3.org/1999/xlink" version="1.1" x="0" y="0" viewBox="11.533 5.77 76.93299999999999 88.461" enable-background="new 0 0 100 100" xml:space="preserve" height="113.19556253120362" width="98.44422075505689" class="icon-dxe-0" data-fill-palette-color="accent" id="dxe-0"><g fill="#000000" data-fill-palette-color="accent"><path d="M61.537 48.08V44.22H65.398V40.39H69.228V36.53H73.087V32.69H76.917V28.84H80.776V25H84.616V21.15H88.466V17.31H84.616V13.46H80.776V9.62H73.087V5.77H42.308V9.62H34.616V13.46H26.917V17.31H23.087V21.15H19.228V28.84H15.398V40.39H11.537V51.92H11.533V59.61H15.392V71.159H19.222V78.85H23.081V82.691H26.911V86.541H34.612V90.381H42.302V94.231H73.081V90.381H80.772V86.541H84.612V82.691H88.462V78.85H84.612V75H80.772V71.159H76.911V67.309H73.081V63.469H69.222V59.61H65.392V55.78H61.533V51.92H57.707V48.08zM49.998 25V32.69H38.466V21.15H49.998z" fill="#ffffff" data-fill-palette-color="accent"></path><rect x="42.309" y="25" width="3.85" height="3.84" fill="#ffffff" data-fill-palette-color="accent"></rect></g></svg></g></svg></g><g id="text-0"><path d="M12.084 88.931l1.435-4.342c0.322-0.974 0.434-1.813 0.337-2.518-0.09-0.703-0.357-1.285-0.801-1.747-0.443-0.462-1.022-0.811-1.736-1.047v0c-1.125-0.372-2.107-0.338-2.946 0.099-0.841 0.444-1.502 1.397-1.985 2.857v0l-1.434 4.343zM11.998 77.219v0c0.714 0.236 1.355 0.577 1.923 1.024 0.574 0.449 1.031 1.007 1.372 1.673 0.339 0.673 0.521 1.448 0.546 2.326 0.028 0.872-0.139 1.854-0.5 2.948v0l-1.434 4.343 7.443 2.458-0.689 2.086-18.215-6.016 2.123-6.429c0.47-1.422 1.098-2.508 1.886-3.258 0.787-0.75 1.662-1.211 2.624-1.384 0.962-0.173 1.936-0.097 2.921 0.229z" fill="#ffffff" data-fill-palette-color="accent"></path><path d="M45.887 50.106l-1.23 1.445-1.982-1.476c0.389 0.838 0.519 1.691 0.39 2.561-0.133 0.875-0.572 1.751-1.318 2.628v0c-0.639 0.75-1.299 1.29-1.981 1.619-0.691 0.33-1.378 0.449-2.061 0.357-0.678-0.087-1.316-0.385-1.914-0.894v0c-0.877-0.746-1.319-1.686-1.325-2.819-0.006-1.133 0.454-2.372 1.38-3.717v0l2.38-3.521-0.829-0.706c-0.588-0.5-1.243-0.686-1.965-0.557-0.722 0.129-1.397 0.564-2.027 1.304v0c-0.613 0.72-0.957 1.463-1.032 2.229-0.075 0.766 0.124 1.508 0.597 2.226v0l-1.705 0.988c-0.68-1.06-0.962-2.182-0.845-3.368 0.118-1.176 0.634-2.301 1.548-3.376v0c1.053-1.237 2.189-1.931 3.41-2.081 1.215-0.155 2.366 0.23 3.451 1.153v0zM39.899 47.712l-0.335-0.284-2.376 3.563c-0.51 0.764-0.769 1.453-0.776 2.067-0.007 0.615 0.233 1.129 0.719 1.543v0c0.487 0.414 1.028 0.569 1.625 0.465 0.587-0.104 1.165-0.491 1.734-1.16v0c0.651-0.766 1.032-1.521 1.142-2.267 0.11-0.746 0.003-1.457-0.321-2.135-0.328-0.673-0.799-1.27-1.412-1.792z" fill="#ffffff" data-fill-palette-color="accent"></path><path d="M74.354 29.944v0c-1.184 0.609-2.357 0.883-3.519 0.822-1.159-0.055-2.227-0.423-3.205-1.103-0.978-0.68-1.786-1.638-2.422-2.876v0c-0.642-1.249-0.958-2.475-0.948-3.678 0.007-1.209 0.322-2.307 0.945-3.293 0.623-0.987 1.527-1.784 2.711-2.394v0c1.249-0.642 2.492-0.918 3.729-0.828 1.237 0.09 2.331 0.538 3.284 1.343v0l-1.386 1.454c-0.578-0.526-1.284-0.815-2.118-0.865-0.837-0.056-1.679 0.134-2.526 0.569v0c-0.829 0.426-1.451 0.986-1.865 1.678-0.418 0.687-0.618 1.456-0.6 2.307 0.019 0.851 0.267 1.742 0.745 2.671v0c0.7 1.362 1.626 2.267 2.777 2.716 1.154 0.44 2.338 0.347 3.552-0.277v0c0.829-0.426 1.473-0.993 1.933-1.701 0.459-0.708 0.68-1.458 0.662-2.25v0l1.962-0.267c0.073 1.235-0.214 2.378-0.863 3.43-0.649 1.052-1.598 1.9-2.848 2.542z" fill="#ffffff" data-fill-palette-color="accent"></path><path d="M105.564 10.344v0c-0.084-1.442 0.075-2.775 0.477-3.999 0.409-1.224 1.02-2.294 1.833-3.208 0.813-0.921 1.778-1.651 2.893-2.19 1.109-0.538 2.341-0.847 3.697-0.926v0c1.967-0.115 3.722 0.24 5.264 1.063 1.535 0.824 2.734 2.054 3.596 3.692v0l-1.736 0.761c-0.471-0.873-1.069-1.575-1.793-2.106-0.732-0.537-1.541-0.927-2.429-1.169-0.894-0.241-1.823-0.334-2.787-0.277v0c-1.369 0.08-2.584 0.464-3.644 1.153-1.061 0.682-1.869 1.626-2.425 2.832-0.563 1.2-0.798 2.614-0.703 4.243v0c0.093 1.602 0.49 2.969 1.19 4.101 0.693 1.127 1.606 1.974 2.739 2.541 1.133 0.567 2.385 0.811 3.754 0.732v0c0.984-0.057 1.912-0.268 2.784-0.633 0.879-0.365 1.658-0.894 2.338-1.587 0.679-0.7 1.21-1.554 1.591-2.564v0l1.822 0.544c-0.674 1.927-1.741 3.413-3.201 4.458-1.459 1.045-3.199 1.627-5.22 1.746v0c-1.356 0.079-2.616-0.084-3.779-0.49-1.171-0.405-2.214-1.021-3.129-1.848-0.915-0.827-1.647-1.824-2.196-2.993-0.541-1.162-0.853-2.454-0.936-3.876z" fill="#ffffff" data-fill-palette-color="accent"></path><path d="M152.19 24.176l5.279-12.643 1.751 0.731-0.638 1.866c0.626-0.446 1.331-0.717 2.115-0.816 0.784-0.098 1.612 0.035 2.485 0.399v0c0.897 0.375 1.621 0.929 2.172 1.665 0.551 0.735 0.854 1.608 0.908 2.619v0c0.746-0.698 1.604-1.094 2.574-1.187 0.967-0.087 1.933 0.071 2.897 0.474v0c0.946 0.395 1.696 0.95 2.249 1.664 0.553 0.714 0.859 1.563 0.916 2.547 0.064 0.986-0.161 2.097-0.677 3.332v0l-3.04 7.28-1.898-0.793 2.948-7.058c0.549-1.315 0.686-2.43 0.412-3.345-0.28-0.918-0.946-1.596-1.997-2.035v0c-1.057-0.441-2.051-0.427-2.982 0.042-0.934 0.476-1.701 1.429-2.299 2.86v0l-2.809 6.727-1.889-0.789 2.948-7.058c0.549-1.315 0.696-2.426 0.439-3.334-0.256-0.908-0.906-1.58-1.95-2.016v0c-1.063-0.444-2.045-0.425-2.946 0.058-0.91 0.486-1.664 1.444-2.261 2.876v0l-2.809 6.727z" fill="#ffffff" data-fill-palette-color="accent"></path><path d="M200.923 57.681l-1.281-1.399 1.711-1.784c-0.879 0.282-1.743 0.305-2.59 0.07-0.852-0.24-1.667-0.785-2.445-1.634v0c-0.665-0.727-1.119-1.449-1.361-2.166-0.241-0.727-0.274-1.423-0.099-2.089 0.17-0.662 0.545-1.258 1.125-1.789v0c0.849-0.778 1.836-1.1 2.961-0.965 1.125 0.134 2.297 0.744 3.517 1.829v0l3.2 2.798 0.802-0.735c0.569-0.522 0.835-1.148 0.797-1.881-0.039-0.732-0.386-1.456-1.043-2.173v0c-0.639-0.697-1.333-1.13-2.084-1.3-0.751-0.17-1.512-0.064-2.283 0.317v0l-0.769-1.815c1.136-0.544 2.285-0.684 3.447-0.421 1.152 0.263 2.205 0.914 3.158 1.955v0c1.097 1.198 1.645 2.412 1.643 3.641 0.003 1.225-0.521 2.319-1.572 3.282v0zM204.041 52.036l0.324-0.297-3.242-2.8c-0.695-0.601-1.346-0.943-1.955-1.026-0.609-0.083-1.149 0.091-1.62 0.523v0c-0.471 0.432-0.692 0.95-0.662 1.554 0.03 0.595 0.342 1.217 0.936 1.865v0c0.679 0.741 1.382 1.213 2.107 1.414 0.726 0.202 1.446 0.184 2.158-0.054 0.708-0.242 1.359-0.635 1.954-1.179z" fill="#ffffff" data-fill-palette-color="accent"></path><path d="M215.607 82.906l12.839-4.784 0.662 1.778-1.786 0.783c0.79 0.175 1.484 0.531 2.082 1.068 0.598 0.537 1.062 1.249 1.392 2.135v0c0.365 0.979 0.476 1.915 0.332 2.806-0.144 0.892-0.554 1.698-1.23 2.42-0.679 0.715-1.645 1.306-2.899 1.772v0l-7.393 2.755-0.714-1.919 7.168-2.67c1.335-0.497 2.242-1.162 2.72-1.994 0.479-0.832 0.517-1.788 0.115-2.867v0c-0.416-1.117-1.108-1.85-2.077-2.199-0.969-0.35-2.173-0.256-3.615 0.281v0l-6.878 2.562z" fill="#ffffff" data-fill-palette-color="accent"></path><path d="M17.646 154.809l1.453 4.389c0.324 0.98 0.736 1.727 1.236 2.242 0.5 0.515 1.07 0.828 1.71 0.938 0.64 0.111 1.317 0.048 2.031-0.188v0c1.138-0.376 1.914-0.998 2.328-1.865 0.414-0.866 0.378-2.036-0.109-3.508v0l-1.453-4.39zM24.763 164.266v0c-0.714 0.236-1.44 0.343-2.177 0.321-0.735-0.016-1.442-0.193-2.121-0.529-0.675-0.345-1.289-0.864-1.84-1.558-0.544-0.69-0.999-1.587-1.365-2.693v0l-1.453-4.39-7.518 2.488-0.693-2.095 18.392-6.086 2.146 6.484c0.475 1.435 0.618 2.695 0.431 3.781-0.183 1.077-0.612 1.977-1.285 2.697-0.679 0.723-1.518 1.249-2.517 1.58z" fill="#ffffff" data-fill-palette-color="accent"></path><path d="M35.45 204.409l-1.236-1.452 1.784-1.741c-0.894 0.254-1.767 0.245-2.619-0.027-0.842-0.271-1.641-0.85-2.397-1.737v0c-0.643-0.755-1.074-1.503-1.293-2.243-0.215-0.735-0.225-1.435-0.029-2.1 0.195-0.664 0.597-1.255 1.205-1.773v0c0.882-0.751 1.89-1.036 3.023-0.855 1.134 0.172 2.295 0.827 3.483 1.967v0l3.121 2.943 0.844-0.719c0.588-0.501 0.877-1.122 0.866-1.864-0.016-0.738-0.339-1.477-0.97-2.217v0c-0.626-0.735-1.311-1.201-2.055-1.398-0.754-0.198-1.523-0.12-2.307 0.232v0l-0.714-1.857c1.165-0.511 2.328-0.613 3.488-0.307 1.16 0.315 2.2 1.013 3.119 2.093v0c1.066 1.252 1.575 2.497 1.527 3.735-0.048 1.238-0.619 2.323-1.714 3.256v0zM38.804 198.827l0.334-0.284-3.156-2.939c-0.681-0.636-1.329-1.007-1.944-1.113-0.61-0.11-1.161 0.044-1.652 0.462v0c-0.492 0.419-0.734 0.935-0.727 1.55 0.008 0.605 0.299 1.245 0.873 1.919v0c0.66 0.776 1.354 1.278 2.082 1.506 0.728 0.229 1.455 0.235 2.18 0.02 0.721-0.221 1.391-0.594 2.01-1.121z" fill="#ffffff" data-fill-palette-color="accent"></path><path d="M67.862 228.161v0c-1.202-0.618-2.118-1.42-2.75-2.403-0.629-0.99-0.952-2.085-0.971-3.285-0.016-1.206 0.296-2.431 0.936-3.674v0c0.652-1.267 1.476-2.25 2.473-2.95 0.997-0.7 2.082-1.085 3.256-1.155 1.174-0.07 2.362 0.205 3.563 0.824v0c1.261 0.649 2.218 1.509 2.873 2.579 0.651 1.077 0.925 2.239 0.822 3.489v0l-2.011-0.283c0.095-0.782-0.083-1.533-0.537-2.253-0.447-0.717-1.097-1.295-1.949-1.733v0c-0.841-0.433-1.662-0.619-2.463-0.56-0.811 0.062-1.563 0.352-2.257 0.871-0.691 0.513-1.277 1.237-1.758 2.173v0c-0.71 1.379-0.908 2.674-0.595 3.883 0.307 1.206 1.077 2.127 2.308 2.76v0c0.841 0.433 1.684 0.627 2.53 0.583 0.852-0.041 1.599-0.3 2.242-0.777v0l1.363 1.454c-0.959 0.787-2.063 1.222-3.311 1.305-1.249 0.084-2.503-0.199-3.764-0.848z" fill="#ffffff" data-fill-palette-color="accent"></path><path d="M105.744 229.679v0c0.086-1.455 0.403-2.771 0.952-3.945 0.55-1.181 1.289-2.185 2.219-3.01 0.929-0.819 1.982-1.434 3.159-1.844 1.178-0.411 2.448-0.576 3.811-0.496v0c1.987 0.117 3.705 0.679 5.152 1.684 1.448 1.012 2.51 2.389 3.188 4.129v0l-1.843 0.552c-0.365-0.929-0.883-1.703-1.554-2.322-0.664-0.619-1.429-1.105-2.295-1.456-0.867-0.345-1.788-0.546-2.765-0.603v0c-1.382-0.082-2.644 0.158-3.784 0.717-1.14 0.566-2.064 1.419-2.771 2.557-0.707 1.139-1.109 2.529-1.206 4.171v0c-0.096 1.622 0.141 3.039 0.709 4.253 0.568 1.221 1.385 2.179 2.452 2.875 1.066 0.703 2.29 1.095 3.671 1.177v0c0.997 0.059 1.956-0.041 2.879-0.3 0.916-0.259 1.759-0.7 2.529-1.322 0.764-0.622 1.397-1.418 1.901-2.388v0l1.755 0.773c-0.903 1.847-2.147 3.211-3.732 4.092-1.585 0.874-3.401 1.25-5.449 1.129v0c-1.362-0.08-2.604-0.394-3.725-0.94-1.122-0.546-2.095-1.287-2.92-2.223-0.825-0.936-1.442-2.019-1.849-3.25-0.407-1.238-0.568-2.574-0.484-4.01z" fill="#ffffff" data-fill-palette-color="accent"></path><path d="M157.371 234.106l-5.328-12.774 1.769-0.738 0.889 1.793c0.118-0.771 0.42-1.474 0.905-2.109 0.488-0.629 1.174-1.128 2.059-1.497v0c0.903-0.377 1.818-0.502 2.743-0.376 0.917 0.123 1.759 0.525 2.527 1.207v0c0.029-1.037 0.355-1.933 0.977-2.69 0.622-0.757 1.418-1.338 2.389-1.744v0c0.952-0.397 1.884-0.541 2.796-0.43 0.905 0.113 1.733 0.496 2.481 1.15 0.758 0.658 1.395 1.607 1.914 2.849v0l3.067 7.354-1.917 0.8-2.971-7.124c-0.554-1.327-1.261-2.219-2.122-2.675-0.858-0.45-1.816-0.454-2.873-0.013v0c-1.069 0.446-1.765 1.173-2.088 2.18-0.319 0.999-0.176 2.223 0.429 3.673v0l2.833 6.792-1.917 0.8-2.972-7.124c-0.554-1.327-1.249-2.224-2.085-2.69-0.834-0.46-1.776-0.471-2.827-0.033v0c-1.075 0.449-1.759 1.17-2.051 2.165-0.301 0.991-0.149 2.212 0.457 3.662v0l2.833 6.792z" fill="#ffffff" data-fill-palette-color="accent"></path><path d="M211.085 197.149l-1.289 1.406-1.947-1.555c0.362 0.856 0.461 1.723 0.297 2.602-0.165 0.869-0.641 1.734-1.429 2.592v0c-0.67 0.731-1.359 1.251-2.066 1.56-0.703 0.304-1.396 0.4-2.08 0.288-0.683-0.112-1.319-0.437-1.908-0.977v0c-0.854-0.783-1.261-1.748-1.221-2.894 0.03-1.146 0.538-2.379 1.521-3.699v0l2.536-3.46-0.817-0.749c-0.569-0.522-1.222-0.732-1.957-0.629-0.73 0.107-1.424 0.519-2.081 1.235v0c-0.652 0.712-1.03 1.449-1.134 2.212-0.103 0.773 0.069 1.526 0.515 2.26v0l-1.754 0.939c-0.651-1.093-0.896-2.235-0.736-3.424 0.17-1.19 0.734-2.308 1.693-3.353v0c1.111-1.212 2.284-1.871 3.518-1.977 1.235-0.105 2.382 0.328 3.442 1.3v0zM205.133 194.51l-0.324-0.297-2.527 3.495c-0.547 0.754-0.835 1.443-0.865 2.066-0.034 0.619 0.186 1.146 0.663 1.583v0c0.476 0.436 1.018 0.613 1.627 0.53 0.6-0.083 1.198-0.45 1.797-1.103v0c0.688-0.751 1.101-1.501 1.238-2.252 0.137-0.75 0.054-1.472-0.249-2.166-0.308-0.689-0.761-1.307-1.36-1.856z" fill="#ffffff" data-fill-palette-color="accent"></path><path d="M228.452 167.577l-12.965-4.844 0.671-1.796 1.881 0.585c-0.482-0.649-0.775-1.377-0.879-2.183-0.104-0.806 0.013-1.662 0.351-2.566v0c0.366-0.979 0.901-1.764 1.605-2.353 0.701-0.584 1.547-0.925 2.536-1.025 0.998-0.103 2.127 0.081 3.387 0.551v0l7.464 2.79-0.727 1.945-7.231-2.702c-1.347-0.503-2.481-0.597-3.402-0.28-0.915 0.319-1.575 1.021-1.981 2.106v0c-0.419 1.123-0.377 2.14 0.127 3.054 0.507 0.907 1.487 1.632 2.94 2.176v0l6.95 2.597z" fill="#ffffff" data-fill-palette-color="accent"></path><path d="M2.358 122.769c0-4.087 3.313-7.4 7.4-7.401 4.087 0 7.4 3.313 7.401 7.401 0 4.087-3.313 7.4-7.401 7.4-4.087 0-7.4-3.313-7.4-7.4z" fill="#ffffff" data-fill-palette-color="accent"></path><path d="M222.965 122.769c0-4.087 3.313-7.4 7.401-7.401 4.087 0 7.4 3.313 7.4 7.401 0 4.087-3.313 7.4-7.4 7.4-4.087 0-7.4-3.313-7.401-7.4z" fill="#ffffff" data-fill-palette-color="accent"></path></g><g id="text-1"></g></svg></g></svg></g></svg></g><defs></defs></svg><rect width="395.52" height="140.74069140705376" fill="none" stroke="none" visibility="hidden"></rect></g></svg></g></svg>